<svg xmlns="http://www.w3.org/2000/svg" viewBox="0 0 400 400" width="100%" height="100%">
    <defs>
        <radialGradient id="bgGrad" cx="50%" cy="50%" r="50%">
            <stop offset="0%" stop-color="#2E7D32" />
            <stop offset="100%" stop-color="#1A4D2E" />
        </radialGradient>
        <linearGradient id="skyGrad" x1="0" y1="0" x2="0" y2="1">
            <stop offset="0%" stop-color="#81C784" />
            <stop offset="100%" stop-color="#388E3C" />
        </linearGradient>
        <clipPath id="shieldClip">
            <path d="M 200,60 L 290,90 L 290,180 Q 290,240 200,290 Q 110,240 110,180 L 110,90 Z" />
        </clipPath>
    </defs>
    <rect width="400" height="400" rx="40" fill="url(#bgGrad)" />
    <path d="M 200,60 L 290,90 L 290,180 Q 290,240 200,290 Q 110,240 110,180 L 110,90 Z" fill="#2E7D32" stroke="#FFFFFF" stroke-width="4" />
    <g clip-path="url(#shieldClip)">
        <rect x="100" y="50" width="200" height="240" fill="url(#skyGrad)" />
        <path d="M 220,110 Q 225,105 230,110 Q 235,105 240,110 Q 230,115 220,110 Z" fill="#FFFFFF" />
        <path d="M 240,100 Q 243,97 246,100 Q 249,97 252,100 Q 246,103 240,100 Z" fill="#FFFFFF" />
        <path d="M 140,110 Q 150,100 160,110 Q 165,120 160,130 Q 150,135 140,130 Q 135,120 140,110 Z" fill="#FFFFFF" />
        <ellipse cx="135" cy="95" rx="4" ry="7" fill="#FFFFFF" transform="rotate(-35 135 95)" />
        <ellipse cx="152" cy="90" rx="4" ry="7" fill="#FFFFFF" transform="rotate(-5 152 90)" />
        <ellipse cx="167" cy="98" rx="4" ry="7" fill="#FFFFFF" transform="rotate(25 167 98)" />
        <polygon points="100,280 180,140 280,280" fill="#2E7D32" />
        <polygon points="180,140 160,180 200,180" fill="#FFFFFF" />
        <polygon points="140,280 240,160 340,280" fill="#1B5E20" />
        <polygon points="240,160 215,200 265,200" fill="#FFFFFF" />
        <path d="M 100,260 Q 200,240 300,260" fill="none" stroke="#FFFFFF" stroke-width="3" />
        <polygon points="120,280 130,250 140,280" fill="#FFFFFF" />
        <polygon points="140,280 150,240 160,280" fill="#FFFFFF" />
        <polygon points="160,280 170,260 180,280" fill="#FFFFFF" />
        <polygon points="260,280 270,250 280,280" fill="#FFFFFF" />
        <polygon points="240,280 250,240 260,280" fill="#FFFFFF" />
        <polygon points="220,280 230,260 240,280" fill="#FFFFFF" />
    </g>
    <circle cx="40" cy="340" r="4" fill="#FFFFFF" />
    <circle cx="360" cy="340" r="4" fill="#FFFFFF" />
    <circle cx="50" cy="340" r="2" fill="#A5D6A7" />
    <circle cx="350" cy="340" r="2" fill="#A5D6A7" />
    <rect x="60" y="315" width="280" height="50" rx="25" fill="#FFFFFF" />
    <text x="200" y="348" font-family="'Arial Black', Impact, sans-serif" font-size="36" font-weight="900" fill="#1A4D2E" text-anchor="middle" letter-spacing="15">WLS</text>
    <text x="200" y="390" font-family="'Arial', sans-serif" font-size="16" font-weight="bold" fill="#A5D6A7" text-anchor="middle" letter-spacing="6">WILDLIFE SUPPORT</text>
</svg>
